# xmcd
#
# Track frame offsets: 
#        150
#        11184
#        25822
#        38010
#        55090
#        68298
#        85593
#        99054
#        109568
#        120971
#        132805
#        144328
#        160303
#        176724
#        191529
#        205132
#
# Disc length: 2945 seconds
#
# Revision: 2
# Processed by: cddbd v1.5.2PL0 Copyright (c) Steve Scherf et al.
# Submitted via: ExactAudioCopyFreeDBPlugin 1.0
#
DISCID=bc0b7f10
DTITLE=Various Artist - Ultimate Grammy Collection: Classic Country
DYEAR=2008
DGENRE=Country
TTITLE0=Roger Miller - King of the Road
TTITLE1=Jeannie C. Riley - Harper Valley P.T.A.
TTITLE2=Tammy Wynette - Stand by Your Man
TTITLE3=Johnny Cash - A Boy Named Sue
TTITLE4=Lynn Anderson - (I Never Promised You A) Rose Garden
TTITLE5=Ray Price - For the Good Times
TTITLE6=Johnny Cash and June Carter - If I Were a Carpenter
TTITLE7=Jerry Reed - When You're Hot, You're Hot
TTITLE8=Donna Fargo - The Happiest Girl in the Whole U.S.A
TTITLE9=Crystal Gayle - Don't It Make My Brown Eyes Blue
TTITLE10=Waylon Jennings and Willie Nelson - Mamas Don't Let Your Babies
TTITLE10=Grow Up to Be Cowboys
TTITLE11=Kenny Rogers - The Gambler
TTITLE12=The Charlie Daniels Band - The Devil Went Down to Georgia
TTITLE13=George Jones - He Stopped Loving Her Today
TTITLE14=Dolly Parton - 9 to 5
TTITLE15=Willie Nelson - Always on My Mind
EXTD=
EXTT0=
EXTT1=
EXTT2=
EXTT3=
EXTT4=
EXTT5=
EXTT6=
EXTT7=
EXTT8=
EXTT9=
EXTT10=
EXTT11=
EXTT12=
EXTT13=
EXTT14=
EXTT15=
PLAYORDER=
